<svg width="785" height="392" viewBox="0 0 785 392" fill="none" xmlns="http://www.w3.org/2000/svg">
<g clip-path="url(#clip0_18_17505)">
<path d="M524.428 206.602C401.827 256.96 270.322 287.398 137.223 288.888C96.7308 289.167 56.2388 286.467 16.4966 278.648C6.74851 276.694 0.187301 267.665 1.03089 257.798L2.15566 244.673C2.99925 234.993 10.9664 227.267 20.8082 226.801C103.667 222.892 185.307 225.312 267.791 216.842C344.463 209.674 421.323 196.643 495.184 174.396L511.212 170.021L512.149 169.742C536.051 163.133 547.486 197.667 524.334 206.509L524.428 206.602Z" fill="#FFCD4D"/>
<path d="M413.265 6.39448C419.268 2.57669 429.336 7.69811 435.617 8.7224L457.045 14.2163C555.598 39.4509 667.358 68.224 768.589 95.2279C785.03 99.6043 790.479 120.276 778.472 132.475C693.128 218.887 607.783 306.23 513.203 382.214C504.243 389.384 491.312 388.359 483.369 380.072L475.703 371.971C468.776 364.708 468.498 356.048 473.486 350.275C534.816 278.761 603.35 214.324 672.346 150.353C680.197 143.09 677.333 129.867 667.173 126.608L655.535 122.884C595.037 102.77 506.091 73.0661 445.777 52.9529L424.81 45.9691C424.349 45.7829 423.887 45.5966 423.425 45.4104C412.434 41.5926 406.615 29.4874 409.847 18.2203L413.265 6.39448Z" fill="#FFCD4D"/>
</g>
<defs>
<clipPath id="clip0_18_17505">
<rect width="784" height="392" fill="white" transform="translate(0.805664)"/>
</clipPath>
</defs>
</svg>
